<?xml version="1.0" encoding="UTF-8"?>
<svg id="_レイヤー_1" data-name="レイヤー 1" xmlns="http://www.w3.org/2000/svg" viewBox="0 0 282 399.33">
  <defs>
    <style>
      .cls-1 {
        fill: #fff;
      }

      .cls-2 {
        fill: #e94709;
      }
    </style>
  </defs>
  <path class="cls-2" d="M282,141c0,77.87-141,258.33-141,258.33C141,399.33,0,218.87,0,141S63.13,0,141,0s141,63.13,141,141Z"/>
  <g>
    <path class="cls-1" d="M135.15,173.69c.2,1.3,.85,2.55,1.95,3.75,1.09,1.2,2.4,1.8,3.9,1.8,3.5,0,5.45-1.85,5.84-5.55l11.69-89.83c.2-1.59,.3-3.84,.3-6.74,0-4.5-1.55-8.59-4.65-12.29-3.1-3.7-7.49-5.54-13.19-5.54s-10.34,1.9-13.34,5.69c-3,3.7-4.5,7.75-4.5,12.15,0,2.7,.09,4.95,.29,6.74l11.7,89.83Z"/>
    <path class="cls-1" d="M153.89,197.36c-3.4-3.4-7.7-5.1-12.89-5.1s-9.39,1.76-12.89,5.25c-3.5,3.5-5.24,7.74-5.24,12.74s1.75,9.04,5.24,12.74c3.5,3.6,7.8,5.39,12.89,5.39s9.39-1.75,12.89-5.25c3.49-3.49,5.24-7.79,5.24-12.89s-1.75-9.39-5.24-12.89Z"/>
  </g>
</svg>