<?xml version="1.0" encoding="UTF-8"?>
<svg id="_レイヤー_1" data-name="レイヤー 1" xmlns="http://www.w3.org/2000/svg" viewBox="0 0 282 399.33">
  <defs>
    <style>
      .cls-1 {
        fill: #fff;
      }

      .cls-2 {
        fill: #92114a;
      }
    </style>
  </defs>
  <path class="cls-2" d="M282,141c0,77.87-141,258.33-141,258.33C141,399.33,0,218.87,0,141S63.13,0,141,0s141,63.13,141,141Z"/>
  <g>
    <path class="cls-1" d="M141,80.15c3.55,0,5.96-7.74,6.88-15.55,1.15-9.78-2.98-12.93-6.88-12.93s-8.04,3.15-6.89,12.93c.92,7.81,3.33,15.55,6.89,15.55Z"/>
    <path class="cls-1" d="M141,206.51c-3.56,0-5.97,7.74-6.89,15.56-1.15,9.78,2.98,12.93,6.89,12.93s8.04-3.15,6.88-12.93c-.92-7.81-3.34-15.56-6.88-15.56Z"/>
    <path class="cls-1" d="M109.18,88.54c3.08-1.77,1.3-9.69-1.81-16.91-3.9-9.05-9.04-9.7-12.43-7.76-3.39,1.96-5.38,6.75,.5,14.65,4.71,6.3,10.67,11.79,13.74,10.02Z"/>
    <path class="cls-1" d="M172.81,198.13c-3.07,1.76-1.3,9.69,1.81,16.91,3.9,9.04,9.05,9.7,12.44,7.75,3.38-1.95,5.39-6.75-.5-14.65-4.7-6.29-10.67-11.79-13.74-10.02Z"/>
    <path class="cls-1" d="M76.18,97.77c-7.89-5.88-12.69-3.88-14.64-.5-1.95,3.38-1.29,8.53,7.75,12.43,7.22,3.11,15.14,4.88,16.91,1.81,1.78-3.08-3.73-9.05-10.02-13.75Z"/>
    <path class="cls-1" d="M212.7,176.96c-7.21-3.11-15.14-4.88-16.91-1.81-1.78,3.08,3.73,9.04,10.02,13.75,7.9,5.88,12.69,3.88,14.63,.5,1.96-3.38,1.3-8.53-7.75-12.43Z"/>
    <path class="cls-1" d="M77.82,143.33c0-3.55-7.75-5.96-15.55-6.88-9.78-1.15-12.92,2.98-12.92,6.88s3.14,8.04,12.92,6.89c7.8-.92,15.55-3.34,15.55-6.89Z"/>
    <path class="cls-1" d="M219.73,136.44c-7.8,.93-15.55,3.34-15.55,6.89s7.74,5.97,15.55,6.89c9.79,1.15,12.93-2.98,12.93-6.89s-3.14-8.03-12.93-6.89Z"/>
    <path class="cls-1" d="M69.29,176.96c-9.04,3.9-9.7,9.05-7.75,12.43,1.96,3.38,6.75,5.38,14.64-.5,6.3-4.7,11.79-10.67,10.02-13.75-1.76-3.06-9.69-1.3-16.91,1.81Z"/>
    <path class="cls-1" d="M212.7,109.71c9.05-3.9,9.71-9.05,7.75-12.43-1.95-3.39-6.73-5.38-14.63,.5-6.3,4.7-11.8,10.67-10.02,13.75,1.77,3.06,9.7,1.3,16.91-1.81Z"/>
    <path class="cls-1" d="M95.44,208.15c-5.88,7.9-3.88,12.69-.5,14.65,3.39,1.95,8.53,1.29,12.43-7.75,3.11-7.22,4.89-15.15,1.81-16.91-3.07-1.78-9.03,3.72-13.74,10.02Z"/>
    <path class="cls-1" d="M186.56,78.52c5.89-7.9,3.89-12.69,.5-14.65-3.38-1.95-8.53-1.29-12.44,7.76-3.11,7.22-4.88,15.14-1.81,16.91,3.07,1.78,9.04-3.72,13.74-10.02Z"/>
    <path class="cls-1" d="M133.53,114.73c2.68-.71,2.93-7,2.04-13.06-1.1-7.58-4.83-9.11-7.76-8.32-2.94,.77-5.41,3.97-2.58,11.08,2.27,5.68,5.65,11.02,8.3,10.29Z"/>
    <path class="cls-1" d="M148.47,171.93c-2.65,.72-2.92,7.03-2.04,13.07,1.1,7.58,4.84,9.11,7.77,8.31,2.93-.79,5.4-3.97,2.58-11.08-2.26-5.68-5.64-11.02-8.31-10.31Z"/>
    <path class="cls-1" d="M104.41,106.86c-2.13,2.16-2.68,6.13,3.33,10.89,4.79,3.78,10.39,6.71,12.32,4.76,1.95-1.96-.97-7.55-4.75-12.33-4.74-6.01-8.76-5.47-10.91-3.32Z"/>
    <path class="cls-1" d="M177.57,179.81c2.15-2.15,2.7-6.14-3.31-10.9-4.8-3.78-10.38-6.7-12.33-4.75-1.94,1.95,.98,7.54,4.76,12.33,4.74,6.01,8.74,5.46,10.88,3.32Z"/>
    <path class="cls-1" d="M99.27,137.82c6.05,.88,12.36,.63,13.06-2.05,.72-2.66-4.61-6.04-10.29-8.3-7.11-2.83-10.29-.35-11.08,2.58-.79,2.92,.74,6.66,8.31,7.77Z"/>
    <path class="cls-1" d="M182.72,148.85c-6.05-.87-12.34-.62-13.07,2.04-.71,2.67,4.62,6.04,10.3,8.3,7.11,2.83,10.3,.35,11.09-2.57,.8-2.93-.74-6.67-8.32-7.77Z"/>
    <path class="cls-1" d="M102.11,159.11c5.68-2.27,11.02-5.65,10.3-8.32-.71-2.65-7.02-2.91-13.07-2.03-7.58,1.1-9.11,4.84-8.32,7.76,.78,2.94,3.97,5.41,11.09,2.59Z"/>
    <path class="cls-1" d="M179.89,127.56c-5.68,2.28-11.01,5.65-10.29,8.31,.71,2.67,7.01,2.92,13.07,2.05,7.58-1.1,9.11-4.85,8.32-7.77-.79-2.94-3.97-5.41-11.09-2.59Z"/>
    <path class="cls-1" d="M107.83,169.03c-6,4.74-5.45,8.75-3.3,10.89,2.15,2.14,6.15,2.69,10.89-3.32,3.77-4.79,6.7-10.37,4.76-12.33-1.96-1.95-7.55,.97-12.35,4.76Z"/>
    <path class="cls-1" d="M174.16,117.65c6.01-4.75,5.46-8.76,3.33-10.89-2.14-2.15-6.15-2.69-10.89,3.32-3.79,4.8-6.71,10.39-4.76,12.33,1.95,1.95,7.54-.98,12.33-4.75Z"/>
    <path class="cls-1" d="M133.43,171.99c-2.65-.71-6.03,4.61-8.3,10.3-2.83,7.11-.37,10.31,2.58,11.08,2.93,.8,6.67-.74,7.77-8.31,.88-6.05,.62-12.35-2.05-13.07Z"/>
    <path class="cls-1" d="M154.29,93.29c-2.93-.8-6.67,.74-7.76,8.31-.89,6.06-.62,12.35,2.04,13.07,2.66,.72,6.04-4.62,8.3-10.29,2.83-7.12,.37-10.3-2.58-11.09Z"/>
    <path class="cls-1" d="M126.15,143.33c0,8.2,6.65,14.85,14.85,14.85s14.85-6.65,14.85-14.85-6.65-14.84-14.85-14.84c-8.2,0-14.85,6.65-14.85,14.84Z"/>
  </g>
</svg>