<?xml version="1.0" encoding="UTF-8"?>
<svg id="_レイヤー_1" data-name="レイヤー 1" xmlns="http://www.w3.org/2000/svg" viewBox="0 0 282 399.33">
  <defs>
    <style>
      .cls-1 {
        fill: #fff;
      }

      .cls-2 {
        fill: #ed1c24;
      }
    </style>
  </defs>
  <path class="cls-2" d="M282,141c0,77.87-141,258.33-141,258.33C141,399.33,0,218.87,0,141S63.13,0,141,0s141,63.13,141,141Z"/>
  <circle class="cls-1" cx="141.5" cy="141" r="107.33"/>
  <g>
    <path class="cls-2" d="M127.85,81.42v29.37c0,1.88-1.52,3.4-3.39,3.4h-.91c-1.87,0-3.4-1.52-3.4-3.4v-29.5c0-4.84-3.26-6.29-6.38-6.29s-6.38,1.45-6.38,6.29v29.5c0,1.88-1.53,3.4-3.4,3.4h-.91c-1.87,0-3.39-1.52-3.39-3.4v-29.37c0-8.66-12.35-8.37-12.35,.1v28.04c-.06,15.57,3.66,19.62,9.81,24.47,4.95,3.91,9.18,6.15,9.18,15.85v62.43h14.88v-62.43c0-9.7,4.23-11.94,9.18-15.85,6.15-4.85,9.86-8.9,9.81-24.47v-28.04c0-8.47-12.35-8.76-12.35-.1Z"/>
    <path class="cls-2" d="M175.75,84.34c-3.16,8.86-12.25,29.62-12.83,47.95-.89,28.46,16.55,24.25,16.86,42.89v37.29h14.81l.07,.18V84.34c0-10.81-13.99-13.79-18.91,0Z"/>
  </g>
</svg>