<?xml version="1.0" encoding="UTF-8"?>
<svg id="_レイヤー_1" data-name="レイヤー 1" xmlns="http://www.w3.org/2000/svg" viewBox="0 0 282 399.33">
  <defs>
    <style>
      .cls-1 {
        fill: #fff;
      }

      .cls-2 {
        fill: #e49ec4;
      }
    </style>
  </defs>
  <path class="cls-2" d="M282,141c0,77.87-141,258.33-141,258.33C141,399.33,0,218.87,0,141S63.13,0,141,0s141,63.13,141,141Z"/>
  <path class="cls-1" d="M229.99,128.49l-15.85-3.37,10.85-12.05c-8.77-12.7-27.73-18.48-47.4-14.02-1.83-20.09-13.19-36.33-27.98-40.75l-8.1,14.04-8.1-14.04c-14.79,4.42-26.14,20.66-27.98,40.75-19.67-4.46-38.63,1.32-47.4,14.02l10.85,12.05-15.86,3.37c-.37,15.43,11.57,31.25,30.11,39.2-10.32,17.33-10.69,37.15-1.32,49.41l14.81-6.59-1.69,16.12c14.56,5.12,33.3-1.35,46.59-16.52,13.29,15.17,32.03,21.64,46.59,16.52l-1.69-16.12,14.81,6.59c9.37-12.27,9-32.09-1.32-49.41,18.54-7.95,30.48-23.77,30.11-39.2Zm-67.96,28.8c1.22-.82,2.65-1.25,4.15-1.25,1.3,0,2.59,.35,3.72,1,1.72,.99,2.96,2.6,3.47,4.52,.52,1.92,.25,3.93-.75,5.65-1.33,2.3-3.8,3.73-6.46,3.73-1.3,0-2.59-.35-3.72-1-2.46-1.42-3.88-4.16-3.71-6.94l-13.94-8.05v16.09c2.5,1.24,4.16,3.84,4.16,6.68,0,4.11-3.34,7.45-7.45,7.45s-7.45-3.34-7.45-7.45c0-2.85,1.66-5.44,4.16-6.68v-16.09l-13.94,8.05c.17,2.78-1.24,5.52-3.71,6.94-1.13,.65-2.42,1-3.72,1-2.66,0-5.13-1.43-6.46-3.73-.99-1.72-1.26-3.73-.74-5.65,.52-1.92,1.75-3.53,3.47-4.52,1.13-.65,2.42-1,3.72-1,1.49,0,2.93,.44,4.15,1.25l13.94-8.05-13.94-8.05c-1.22,.82-2.65,1.25-4.15,1.25-1.3,0-2.59-.35-3.72-1-1.72-.99-2.96-2.6-3.47-4.52-.52-1.92-.25-3.93,.75-5.65,1.33-2.3,3.8-3.73,6.46-3.73,1.3,0,2.59,.35,3.72,1,2.46,1.42,3.88,4.16,3.71,6.94l13.94,8.05v-16.09c-2.5-1.24-4.16-3.84-4.16-6.68,0-4.11,3.34-7.45,7.45-7.45s7.45,3.34,7.45,7.45c0,2.85-1.66,5.44-4.16,6.68v16.09l13.94-8.05c-.17-2.78,1.24-5.52,3.71-6.94,1.13-.65,2.42-1,3.72-1,2.66,0,5.13,1.43,6.46,3.73,.99,1.72,1.26,3.73,.74,5.65-.52,1.92-1.75,3.53-3.47,4.52-1.13,.65-2.42,1-3.72,1-1.49,0-2.93-.44-4.15-1.25l-13.94,8.05,13.94,8.05Z"/>
</svg>