<?xml version="1.0" encoding="UTF-8"?>
<svg id="_レイヤー_1" data-name="レイヤー 1" xmlns="http://www.w3.org/2000/svg" viewBox="0 0 282 399.33">
  <defs>
    <style>
      .cls-1 {
        fill: #fff;
      }

      .cls-2 {
        fill: #fdd23e;
      }
    </style>
  </defs>
  <path class="cls-2" d="M282,141c0,77.87-141,258.33-141,258.33C141,399.33,0,218.87,0,141S63.13,0,141,0s141,63.13,141,141Z"/>
  <g>
    <path class="cls-1" d="M219.21,110.59l-24.63-6.48c-8.12-2.14-14.46-8.48-16.6-16.59l-6.48-24.63c-.45-1.71-1.99-2.9-3.75-2.9s-3.31,1.19-3.76,2.9l-6.48,24.63c-2.14,8.12-8.48,14.46-16.6,16.59l-24.63,6.48c-1.71,.45-2.9,1.99-2.9,3.75s1.19,3.3,2.9,3.76l24.63,6.48c8.12,2.13,14.46,8.48,16.6,16.59l6.48,24.63c.45,1.71,1.99,2.9,3.76,2.9s3.3-1.19,3.75-2.9l6.48-24.63c2.14-8.12,8.48-14.46,16.6-16.59l24.63-6.48c1.71-.45,2.9-1.99,2.9-3.76s-1.19-3.31-2.89-3.76Z"/>
    <path class="cls-1" d="M125.55,191.18l-15.05-3.96c-4.96-1.3-8.83-5.18-10.14-10.14l-3.96-15.05c-.27-1.05-1.21-1.77-2.29-1.77s-2.02,.72-2.29,1.77l-3.96,15.05c-1.31,4.96-5.18,8.83-10.14,10.14l-15.05,3.96c-1.04,.28-1.77,1.22-1.77,2.3s.73,2.02,1.77,2.3l15.05,3.96c4.96,1.3,8.83,5.18,10.14,10.14l3.96,15.05c.27,1.05,1.22,1.77,2.29,1.77s2.02-.72,2.29-1.77l3.96-15.05c1.3-4.96,5.18-8.83,10.14-10.14l15.05-3.96c1.04-.28,1.77-1.22,1.77-2.3,0-1.08-.73-2.02-1.77-2.3Z"/>
  </g>
</svg>