<?xml version="1.0" encoding="UTF-8"?>
<svg id="_レイヤー_1" data-name="レイヤー 1" xmlns="http://www.w3.org/2000/svg" viewBox="0 0 282 399.33">
  <defs>
    <style>
      .cls-1 {
        fill: #fff;
      }

      .cls-2 {
        fill: #b8d200;
      }
    </style>
  </defs>
  <path class="cls-2" d="M282,141c0,77.87-141,258.33-141,258.33C141,399.33,0,218.87,0,141S63.13,0,141,0s141,63.13,141,141Z"/>
  <g>
    <path class="cls-1" d="M221.03,204.4v-20.5h-49.92v20.5l-9.81,4.46v7.13h69.53v-7.13l-9.8-4.46Zm-8.92,0h-32.09v-8.02h32.09v8.02Z"/>
    <rect class="cls-1" x="164.5" y="219.56" width="8.02" height="13.37"/>
    <rect class="cls-1" x="219.61" y="219.56" width="8.02" height="13.37"/>
    <rect class="cls-1" x="206.29" y="219.56" width="8.03" height="7.35"/>
    <rect class="cls-1" x="177.81" y="219.56" width="8.02" height="7.35"/>
    <path class="cls-1" d="M175.55,168.3c13.11-4.97,22.45-17.61,22.45-32.46,0-9.42-3.76-17.95-9.85-24.2,.22-1.65,.38-3.31,.38-5.01,0-18.95-14.22-34.55-32.57-36.8-9.22-9.88-22.32-16.09-36.91-16.09-27.9,0-50.52,22.62-50.52,50.52,0,.15,.02,.29,.02,.44-10.49,7.1-17.39,19.1-17.39,32.72,0,18.67,12.98,34.28,30.4,38.38,3.53,8.64,12.01,14.74,21.92,14.74,3.69,0,7.18-.87,10.29-2.38v44.78h27.13v-29.4l10.58-18.08c10.83-.79,19.98-7.62,24.06-17.16Zm-49.35,5.21c.23,.32,.47,.64,.71,.96l-1.2,.49c.17-.48,.34-.96,.49-1.44Zm8.49,22.11v-14.2c2.51,1.52,5.28,2.68,8.22,3.36l-8.22,10.84Z"/>
  </g>
</svg>