<?xml version="1.0" encoding="UTF-8"?>
<svg id="_レイヤー_1" data-name="レイヤー 1" xmlns="http://www.w3.org/2000/svg" viewBox="0 0 282 399.33">
  <defs>
    <style>
      .cls-1 {
        fill: #fff;
      }

      .cls-2 {
        fill: #fcc800;
      }
    </style>
  </defs>
  <path class="cls-2" d="M282,141c0,77.87-141,258.33-141,258.33C141,399.33,0,218.87,0,141S63.13,0,141,0s141,63.13,141,141Z"/>
  <path class="cls-1" d="M180.83,184.83h6.63v-18.35h-14.55c-2.97-7.36-5.89-15.21-8.68-23.52h3.44v-18.35h-9.1c-2.95-10.42-5.58-21.37-7.75-32.75h1.62v-8.54h4.04v-6.88h-4.1c-.48-4.93-4.08-8.93-8.8-10.03v-17.22c0-1.43-1.16-2.58-2.58-2.58s-2.58,1.15-2.58,2.58v17.22c-4.72,1.09-8.33,5.1-8.8,10.03h-4.1v6.88h4.04v8.54h1.61c-2.16,11.38-4.79,22.34-7.74,32.75h-9.1v18.35h3.44c-2.78,8.31-5.71,16.16-8.68,23.52h-14.55v18.35h6.63c-11.82,25.65-22.75,42.22-25.83,45.31h32.69c3.35-26.8,22.44-34.33,32.98-34.98,10.53,.65,29.62,8.18,32.98,34.98h32.69c-3.09-3.09-14.01-19.66-25.84-45.31Zm-47.21-41.86h14.76c1.79,7.76,3.82,15.7,6.09,23.52h-26.96c2.28-7.81,4.3-15.76,6.1-23.52Z"/>
</svg>