<?xml version="1.0" encoding="UTF-8"?>
<svg id="_レイヤー_1" data-name="レイヤー 1" xmlns="http://www.w3.org/2000/svg" viewBox="0 0 282 399.33">
  <defs>
    <style>
      .cls-1 {
        fill: #fff;
      }

      .cls-2 {
        fill: #898b65;
      }
    </style>
  </defs>
  <path class="cls-2" d="M282,141c0,77.87-141,258.33-141,258.33C141,399.33,0,218.87,0,141S63.13,0,141,0s141,63.13,141,141Z"/>
  <g>
    <path class="cls-1" d="M226.08,144.52c-1.22-3.47-4.58-7.48-7.04-9.87-5.84-5.66-12.13-8.49-15.2-10.15-2.29-1.38-5.2-.54-6.52,1.86-1.31,2.4-.45,5.34,1.77,6.84,14.56,9.93,16.96,21.84,6.42,34.27-3.15,3.71-7.35,6.65-13.53,10.11-10.1,5.66-30.95,10.64-50.98,10.61-20.03,.03-40.87-4.95-50.98-10.61-6.17-3.46-10.37-6.4-13.53-10.11-10.53-12.43-8.13-24.34,6.43-34.27,2.21-1.51,3.07-4.44,1.76-6.84-1.31-2.4-4.23-3.24-6.51-1.86-3.08,1.66-9.38,4.49-15.2,10.15-2.47,2.39-5.84,6.4-7.05,9.87-1.22,3.46-1.91,7.25-1.91,11.2s.76,8.08,2.17,11.8c2.45,6.52,6.72,12.17,12.08,17,8.08,7.24,18.75,12.82,31.14,16.72,12.4,3.89,26.54,6.06,41.59,6.06s29.19-2.17,41.59-6.06c12.39-3.91,23.06-9.48,31.14-16.72,5.37-4.83,9.64-10.48,12.08-17,1.4-3.72,2.17-7.71,2.17-11.8,0-3.95-.7-7.73-1.91-11.2Z"/>
    <path class="cls-1" d="M135.39,153.69c2.39,5.29,5.43,8.76,7.73,10.63,2.35,1.87,4.22,2.47,5.66,1.65,1.45-.82,1.76-2.88,1.22-5.78-.54-2.91-1.75-6.41-2.59-10.59-.85-4.14-1.43-9.48-1.43-15.4,.02-2.9,.24-5.81,.83-8.69,.57-2.9,1.56-5.78,2.9-9.35,1.34-3.55,2.79-7.73,3.5-11.9,.74-4.18,.86-8.23,.66-11.92-.45-7.27-1.89-13.77-4.28-19.08-2.38-5.29-5.43-8.76-7.74-10.63-2.35-1.87-4.22-2.47-5.66-1.65-1.45,.82-1.76,2.89-1.21,5.78,.54,2.92,1.75,6.41,2.59,10.59,.85,4.14,1.43,9.48,1.43,15.4-.02,2.9-.24,5.81-.83,8.69-.57,2.9-1.56,5.78-2.91,9.35-1.34,3.55-2.78,7.73-3.49,11.91-.74,4.18-.87,8.23-.66,11.92,.45,7.27,1.89,13.77,4.27,19.07Z"/>
    <path class="cls-1" d="M165.84,141.59c.7,2.94,1.68,5.69,2.87,8.06,2.41,4.8,5.42,7.76,7.63,9.26,2.27,1.51,4.08,1.88,5.48,.99s1.7-2.84,1.18-5.46c-.52-2.64-1.67-5.71-2.42-9.28-.78-3.53-1.28-8.15-1.21-13.28,.05-2.5,.31-4.95,.89-7.37,.58-2.44,1.56-4.87,2.92-8.01,1.35-3.11,2.87-6.87,3.67-10.72,.83-3.85,1.02-7.62,.85-11.02-.18-3.41-.63-6.46-1.33-9.42-.7-2.94-1.68-5.68-2.87-8.05-2.4-4.81-5.41-7.76-7.63-9.26-2.27-1.51-4.08-1.88-5.48-.99s-1.7,2.83-1.18,5.46c.52,2.64,1.67,5.71,2.42,9.27,.78,3.53,1.28,8.15,1.21,13.27-.06,2.5-.31,4.95-.9,7.37-.58,2.44-1.56,4.87-2.92,8.01-1.36,3.11-2.88,6.88-3.67,10.72-.83,3.85-1.01,7.62-.85,11.02,.18,3.41,.64,6.46,1.34,9.42Z"/>
    <path class="cls-1" d="M98.06,141.59c.7,2.94,1.68,5.69,2.88,8.06,2.41,4.8,5.4,7.76,7.63,9.26,2.27,1.51,4.08,1.88,5.48,.99,1.41-.89,1.7-2.84,1.18-5.46-.52-2.64-1.67-5.71-2.42-9.28-.78-3.53-1.28-8.15-1.21-13.28,.06-2.5,.31-4.95,.9-7.37,.58-2.44,1.54-4.87,2.91-8.01,1.35-3.11,2.87-6.87,3.67-10.72,.83-3.85,1.02-7.62,.85-11.02-.18-3.41-.63-6.46-1.32-9.42-.7-2.94-1.69-5.68-2.88-8.05-2.41-4.8-5.42-7.76-7.63-9.27-2.27-1.51-4.08-1.87-5.49-.99-1.4,.89-1.7,2.83-1.17,5.46,.52,2.64,1.66,5.7,2.41,9.27,.78,3.53,1.28,8.15,1.21,13.27-.06,2.5-.31,4.95-.9,7.37-.58,2.44-1.55,4.87-2.92,8.01-1.35,3.11-2.87,6.88-3.67,10.72-.82,3.85-1.01,7.62-.84,11.02,.19,3.41,.64,6.46,1.33,9.42Z"/>
  </g>
</svg>