<?xml version="1.0" encoding="UTF-8"?>
<svg id="_レイヤー_1" data-name="レイヤー 1" xmlns="http://www.w3.org/2000/svg" viewBox="0 0 282 399.33">
  <defs>
    <style>
      .cls-1 {
        fill: #fff;
      }

      .cls-2 {
        fill: #b7282d;
      }
    </style>
  </defs>
  <path class="cls-2" d="M282,141c0,77.87-141,258.33-141,258.33C141,399.33,0,218.87,0,141S63.13,0,141,0s141,63.13,141,141Z"/>
  <path class="cls-1" d="M221.33,77.79H61.67l3.5,17.5h33.19l-3.21,31.32h-23.1v15.39h21.52l-6.96,67.88h16.53l6.96-67.88h62.81l6.96,67.88h16.53l-6.96-67.88h21.52v-15.39h-23.1l-3.21-31.32h33.19l3.5-17.5Zm-109.65,48.81l3.21-31.32h53.22l3.21,31.32h-59.64Z"/>
</svg>