<?xml version="1.0" encoding="UTF-8"?>
<svg id="_レイヤー_1" data-name="レイヤー 1" xmlns="http://www.w3.org/2000/svg" viewBox="0 0 282 399.33">
  <defs>
    <style>
      .cls-1 {
        fill: #fff;
      }

      .cls-2 {
        fill: #8f5f8f;
      }
    </style>
  </defs>
  <path class="cls-2" d="M282,141c0,77.87-141,258.33-141,258.33C141,399.33,0,218.87,0,141S63.13,0,141,0s141,63.13,141,141Z"/>
  <g>
    <rect class="cls-1" x="114.66" y="207.85" width="6.65" height="41.98"/>
    <path class="cls-1" d="M173.96,122.82c1.37-38.26-23.69-62.65-55.47-62.65s-56.84,24.38-55.47,62.65c1.42,39.83,29.64,64.53,48.3,69.99l-5.26,9.71h24.87l-5.26-9.71c18.66-5.46,46.88-30.16,48.3-69.99Zm-68.34-31.47c-2.27,1.32-4.33,2.94-6.15,4.82-4.01,4.16-6.83,9.44-8.37,15.88-.65,2.75-3.41,4.44-6.16,3.79-2.75-.65-4.45-3.41-3.79-6.16,1.89-7.97,5.57-15.03,10.96-20.61,2.48-2.57,5.29-4.76,8.36-6.55,2.44-1.42,5.57-.6,7,1.84,1.42,2.44,.6,5.57-1.84,7Z"/>
    <rect class="cls-1" x="175.46" y="213.05" width="5.02" height="31.67"/>
    <path class="cls-1" d="M220,148.9c1.01-28.26-17.1-46.43-40.36-47.19,1.56,6.74,2.25,13.91,1.98,21.38-1.05,29.49-15.18,50.84-30.41,63.73,6.91,7.87,14.99,12.96,21.53,14.88l-3.97,7.33h18.75l-3.97-7.33c14.07-4.12,35.36-22.75,36.44-52.8Z"/>
  </g>
</svg>